<?xml version="1.0" encoding="utf-8"?>
<!DOCTYPE svg PUBLIC "-//W3C//DTD SVG 1.1//EN" "http://www.w3.org/Graphics/SVG/1.1/DTD/svg11.dtd">
<svg version="1.1" xmlns="http://www.w3.org/2000/svg" xmlns:xlink="http://www.w3.org/1999/xlink" x="0px" y="0px" viewBox="0 0 1000 1000" enable-background="new 0 0 1000 1000" xml:space="preserve">
<g style="fill:#3289a8"><g><g><path d="M907.9,234.6c-7.4-11.5-21.4-25.7-32.6-33.2c-67.6-45.1-130.5-37.2-162-28.5c-16.3,4.5-33.1,18.3-41.8,29.2l-33.4,42.3c-1.6,1.9-7.4,4.7-9.9,4.8H371.7c-2.5-0.1-8.3-2.9-9.9-4.7L328.4,202c-8.7-10.9-25.4-24.7-41.7-29.2c-31.4-8.7-94.3-16.6-161.9,28.5c-11.2,7.5-25.2,21.8-32.6,33.3c-23.7,36.9-79,140.6-81.8,306.7C7.2,724.9,24.7,815.4,132.5,832.8c4.6,0.7,9.1,1.1,13.6,1.1c77.7,0,134.5-107.9,165.8-167.4l3.3-6.3c3.7-6.9,11.1-15.1,14-16.8c19.9-11.6,68.3-30.9,170.7-31.6c102.4,0.7,150.8,20,170.7,31.6c2.9,1.7,10.3,9.9,14,16.8l3.3,6.3c33.1,62.9,94.9,179.8,179.4,166.3c107.8-17.4,125.3-107.9,122.2-291.5C986.9,375.2,931.6,271.5,907.9,234.6z M859.4,782.8c-48.8,7.3-105.3-99.5-126.5-139.9l-3.4-6.4c-6.5-12.2-19.6-29-33.3-36.9c-29.1-17-85.5-37.1-190.4-38.5v-0.1c-4,0-7.8,0-11.7,0v0.1c-104.8,1.4-161.3,21.5-190.4,38.4c-13.6,7.9-26.8,24.7-33.3,36.9l-3.3,6.4c-21.3,40.4-77.8,147.3-126.5,139.9C88.7,774.4,57.4,754,61,542.2c2.6-153.1,52.4-247,73.8-280.2c3.6-5.7,12.6-14.8,18.1-18.5c31.1-20.8,60.5-26.7,84-26.7c14.9,0,27.3,2.4,36.3,4.8c3.1,0.9,11.4,6.7,15.5,11.8l33.5,42.4c11.2,14.1,31.6,24,49.6,24h256.6c18,0,38.4-9.9,49.6-24l33.4-42.3c4.1-5.2,12.5-11,15.6-11.9c23.1-6.4,69.5-12.1,120.3,21.8c5.5,3.6,14.4,12.8,18,18.4c21.3,33.3,71.2,127.1,73.8,280.2C942.6,754,911.3,774.4,859.4,782.8z"/><path d="M770.5,422.5c25.7,0,46.7-20.9,46.7-46.7c0-25.7-20.9-46.7-46.7-46.7c-25.7,0-46.7,20.9-46.7,46.7C723.8,401.6,744.7,422.5,770.5,422.5z M770.5,346c16.4,0,29.8,13.4,29.8,29.8c0,16.4-13.4,29.8-29.8,29.8s-29.8-13.4-29.8-29.8C740.7,359.4,754,346,770.5,346z"/><path d="M770.5,471.4c-25.7,0-46.7,20.9-46.7,46.7c0,25.7,20.9,46.7,46.7,46.7c25.7,0,46.7-20.9,46.7-46.7C817.1,492.3,796.2,471.4,770.5,471.4z M770.5,547.8c-16.4,0-29.8-13.4-29.8-29.8s13.3-29.8,29.8-29.8s29.8,13.3,29.8,29.8S786.9,547.8,770.5,547.8z"/><path d="M740.7,447.7c0-25.7-20.9-46.7-46.7-46.7c-25.7,0-46.7,20.9-46.7,46.7c0,25.8,20.9,46.7,46.7,46.7C719.8,494.4,740.7,473.4,740.7,447.7z M694,477.5c-16.4,0-29.8-13.4-29.8-29.8c0-16.4,13.4-29.8,29.8-29.8s29.8,13.4,29.8,29.8C723.8,464.1,710.4,477.5,694,477.5z"/><path d="M846.9,401c-25.7,0-46.7,20.9-46.7,46.7c0,25.8,20.9,46.7,46.7,46.7c25.7,0,46.7-20.9,46.7-46.7C893.6,421.9,872.6,401,846.9,401z M846.9,477.5c-16.4,0-29.8-13.4-29.8-29.8c0-16.4,13.3-29.8,29.8-29.8s29.8,13.4,29.8,29.8C876.7,464.1,863.3,477.5,846.9,477.5z"/><path d="M298.9,413.7h-47.7V366c0-4.7-3.8-8.4-8.4-8.4h-47c-4.7,0-8.4,3.8-8.4,8.4v47.7h-47.8c-4.7,0-8.4,3.8-8.4,8.4v47c0,4.7,3.8,8.4,8.4,8.4h47.8v47.8c0,4.7,3.8,8.4,8.4,8.4h47c4.7,0,8.4-3.8,8.4-8.4v-47.8h47.7c4.7,0,8.4-3.8,8.4-8.4v-47C307.3,417.5,303.6,413.7,298.9,413.7z M290.4,460.7h-47.7c-4.7,0-8.4,3.8-8.4,8.4v47.7h-30.1v-47.7c0-4.7-3.8-8.4-8.4-8.4h-47.7v-30.1h47.7c4.7,0,8.4-3.8,8.4-8.4v-47.7h30.1v47.7c0,4.7,3.8,8.4,8.4,8.4h47.7V460.7z"/><path d="M444.7,339.1h-60.4c-4.7,0-8.4,3.8-8.4,8.4v38.2c0,4.7,3.8,8.4,8.4,8.4h60.4c4.7,0,8.4-3.8,8.4-8.4v-38.2C453.2,342.9,449.4,339.1,444.7,339.1z M436.3,377.3h-43.5V356h43.5V377.3z"/><path d="M598,339.1h-60.4c-4.7,0-8.4,3.8-8.4,8.4v38.2c0,4.7,3.8,8.4,8.4,8.4H598c4.7,0,8.4-3.8,8.4-8.4v-38.2C606.5,342.9,602.7,339.1,598,339.1z M589.6,377.3h-43.5V356h43.5V377.3z"/></g></g><g></g><g></g><g></g><g></g><g></g><g></g><g></g><g></g><g></g><g></g><g></g><g></g><g></g><g></g><g></g></g>
</svg>